<svg xmlns="http://www.w3.org/2000/svg" xmlns:xlink="http://www.w3.org/1999/xlink" width="50" zoomAndPan="magnify" viewBox="0 0 37.5 37.499999" height="50" preserveAspectRatio="xMidYMid meet" version="1.0"><defs><clipPath id="id1"><path d="M 5.855469 0.652344 L 31.355469 0.652344 L 31.355469 36.652344 L 5.855469 36.652344 Z M 5.855469 0.652344 " clip-rule="nonzero"/></clipPath><clipPath id="id2"><path d="M 15 35 L 22 35 L 22 36.652344 L 15 36.652344 Z M 15 35 " clip-rule="nonzero"/></clipPath></defs><g clip-path="url(#id1)"><path fill="#50b27c" d="M 18.605469 0.652344 C 6.472656 0.652344 5.867188 9.339844 5.867188 12.855469 C 5.867188 22 18.605469 36.042969 18.605469 36.042969 C 18.605469 36.042969 31.347656 22 31.347656 12.855469 C 31.347656 9.339844 30.738281 0.652344 18.605469 0.652344 Z M 18.605469 0.652344 " fill-opacity="1" fill-rule="nonzero"/></g><path fill="#2d2d2d" d="M 16.785156 9.804688 L 16.179688 9.804688 L 16.179688 4.316406 L 14.964844 4.316406 L 14.964844 9.804688 L 14.359375 9.804688 L 14.359375 4.316406 L 13.144531 4.316406 L 13.144531 9.804688 L 12.539062 9.804688 L 12.539062 4.316406 L 11.328125 4.316406 L 11.328125 10.417969 C 11.328125 10.753906 11.597656 11.027344 11.933594 11.027344 L 13.144531 11.027344 L 13.144531 21.398438 C 13.144531 21.734375 13.417969 22.007812 13.753906 22.007812 L 15.574219 22.007812 C 15.90625 22.007812 16.179688 21.734375 16.179688 21.398438 L 16.179688 11.027344 L 17.394531 11.027344 C 17.726562 11.027344 18 10.753906 18 10.417969 L 18 4.316406 L 16.785156 4.316406 Z M 16.785156 9.804688 " fill-opacity="1" fill-rule="nonzero"/><path fill="#2d2d2d" d="M 22.523438 3.703125 C 20.363281 3.703125 18.605469 5.621094 18.605469 7.976562 C 18.605469 9.714844 19.585938 11.273438 21.03125 11.921875 L 21.03125 21.398438 C 21.03125 21.734375 21.304688 22.007812 21.640625 22.007812 L 23.460938 22.007812 C 23.792969 22.007812 24.066406 21.734375 24.066406 21.398438 L 24.066406 11.898438 C 25.480469 11.234375 26.4375 9.683594 26.4375 7.976562 C 26.4375 5.621094 24.679688 3.703125 22.523438 3.703125 Z M 22.523438 3.703125 " fill-opacity="1" fill-rule="nonzero"/><path fill="#ff3939" d="M 18.605469 24.449219 C 12.917969 24.449219 8.292969 19.796875 8.292969 14.078125 C 8.292969 12.484375 8.640625 10.960938 9.328125 9.539062 L 10.421875 10.074219 C 9.8125 11.324219 9.507812 12.671875 9.507812 14.078125 C 9.507812 19.125 13.589844 23.230469 18.605469 23.230469 C 22.972656 23.230469 26.734375 20.101562 27.546875 15.792969 L 28.738281 16.019531 C 27.816406 20.90625 23.554688 24.449219 18.605469 24.449219 Z M 18.605469 24.449219 " fill-opacity="1" fill-rule="nonzero"/><path fill="#ff3939" d="M 28.917969 14.078125 L 27.707031 14.078125 C 27.707031 12.980469 27.515625 11.90625 27.136719 10.886719 L 28.273438 10.460938 C 28.703125 11.617188 28.917969 12.832031 28.917969 14.078125 Z M 28.917969 14.078125 " fill-opacity="1" fill-rule="nonzero"/><g clip-path="url(#id2)"><path fill="#ff3939" d="M 15.574219 35.433594 L 21.640625 35.433594 L 21.640625 36.652344 L 15.574219 36.652344 Z M 15.574219 35.433594 " fill-opacity="1" fill-rule="nonzero"/></g></svg>